<svg width="18" height="18" viewBox="0 0 18 18" fill="none" xmlns="http://www.w3.org/2000/svg">
<path fill-rule="evenodd" clip-rule="evenodd" d="M9 3C5.68629 3 3 5.68629 3 9C3 12.3137 5.68629 15 9 15C12.3137 15 15 12.3137 15 9C15 5.68629 12.3137 3 9 3ZM1.5 9C1.5 4.85786 4.85786 1.5 9 1.5C13.1421 1.5 16.5 4.85786 16.5 9C16.5 13.1421 13.1421 16.5 9 16.5C4.85786 16.5 1.5 13.1421 1.5 9Z" fill="#047857"/>
<path fill-rule="evenodd" clip-rule="evenodd" d="M11.7803 6.97529C12.0732 7.26818 12.0732 7.74305 11.7803 8.03595L8.78033 11.0359C8.48744 11.3288 8.01256 11.3288 7.71967 11.0359L6.21967 9.53595C5.92678 9.24305 5.92678 8.76818 6.21967 8.47529C6.51256 8.18239 6.98744 8.18239 7.28033 8.47529L8.25 9.44495L10.7197 6.97529C11.0126 6.68239 11.4874 6.68239 11.7803 6.97529Z" fill="#047857"/>
</svg>
