<svg width="131" height="24" viewBox="0 0 131 24" fill="none" xmlns="http://www.w3.org/2000/svg">
    <g clipPath="url(#clip0_655_16396)">
        <g clipPath="url(#clip1_655_16396)">
            <path d="M6.40233 0C5.51312 0 5.0678 1.07714 5.69656 1.70711L22.2508 18.2929C22.8796 18.9229 23.9546 18.4767 23.9546 17.5858V1C23.9546 0.447715 23.5078 0 22.9566 0H6.40233Z" fill="#0137FC" />
            <path d="M11.6977 21.7197C12.1693 22.1921 12.9756 21.8575 12.9756 21.1893V11.75C12.9756 11.3358 12.6404 11 12.227 11H2.80563C2.13872 11 1.80473 11.8079 2.27631 12.2803L11.6977 21.7197Z" fill="#0137FC" />
            <path d="M5.13697 23.1464C5.45135 23.4614 5.9889 23.2383 5.9889 22.7929V18.5C5.9889 18.2239 5.76547 18 5.48985 18H1.20513C0.760522 18 0.537863 18.5386 0.852247 18.8536L5.13697 23.1464Z" fill="#0137FC" />
        </g>
        <path d="M37.6778 11.3419C36.2351 11.1364 35.7405 10.8899 35.7405 10.2323C35.7405 9.61587 36.2763 9.20494 37.1832 9.20494C38.1312 9.20494 38.6259 9.57479 38.7496 10.3967H41.3053C41.0579 8.09535 39.3679 7.27344 37.142 7.27344C35.0809 7.27344 33.1436 8.30083 33.1436 10.3967C33.1436 12.3693 34.1741 13.109 36.8534 13.52C38.2961 13.7255 38.8732 14.0131 38.8732 14.7118C38.8732 15.4104 38.3786 15.8214 37.3068 15.8214C36.1114 15.8214 35.658 15.2871 35.5344 14.383H32.9375C33.0199 16.5611 34.6275 17.7529 37.3068 17.7529C39.945 17.7529 41.5525 16.6022 41.5525 14.4652C41.5938 12.3282 40.1923 11.7118 37.6778 11.3419Z" fill="#111827" />
        <path d="M47.6123 7.31641C45.1391 7.31641 43.2429 8.05613 43.078 10.4397H45.7162C45.8398 9.57668 46.3344 9.3301 47.4474 9.3301C48.7252 9.3301 49.0962 9.98766 49.0962 11.1794V11.5904H47.9421C44.8505 11.5904 42.707 12.4534 42.707 14.7958C42.707 16.8917 44.2322 17.7958 46.0872 17.7958C47.6536 17.7958 48.5604 17.1794 49.1375 16.3575V17.5492H51.858V11.0561C51.8168 8.30271 50.0855 7.31641 47.6123 7.31641ZM49.055 14.0561C49.055 15.1657 48.107 15.8232 46.8703 15.8232C45.8398 15.8232 45.4276 15.3301 45.4276 14.6315C45.4276 13.563 46.3757 13.1931 47.9833 13.1931H49.055V14.0561Z" fill="#111827" />
        <path d="M55.6915 3H52.9297V17.589H55.6915V3Z" fill="#111827" />
        <path d="M61.9975 7.31445C59.0709 7.31445 56.8037 9.36925 56.8037 12.5336V12.698C56.8037 15.9034 59.0296 17.7939 62.0387 17.7939C64.8005 17.7939 66.5317 16.6021 66.8615 14.424H64.2234C64.0585 15.287 63.399 15.8213 62.1212 15.8213C60.596 15.8213 59.6891 14.8761 59.6067 13.1912H66.8615V12.4104C66.9027 8.835 64.5944 7.31445 61.9975 7.31445ZM59.6891 11.4651C59.8952 10.0268 60.7609 9.20486 61.9975 9.20486C63.3166 9.20486 64.0997 9.94456 64.1822 11.4651H59.6891Z" fill="#111827" />
        <path d="M72.7149 11.3419C71.2723 11.1364 70.7776 10.8899 70.7776 10.2323C70.7776 9.61587 71.3134 9.20494 72.2203 9.20494C73.1683 9.20494 73.663 9.57479 73.7867 10.3967H76.3423C76.095 8.09535 74.405 7.27344 72.1791 7.27344C70.118 7.27344 68.1807 8.30083 68.1807 10.3967C68.1807 12.3693 69.2112 13.109 71.8905 13.52C73.3332 13.7255 73.9103 14.0131 73.9103 14.7118C73.9103 15.4104 73.4157 15.8214 72.3439 15.8214C71.1486 15.8214 70.6951 15.2871 70.5715 14.383H67.9746C68.057 16.5611 69.6646 17.7529 72.3439 17.7529C74.9821 17.7529 76.5897 16.6022 76.5897 14.4652C76.6309 12.3282 75.2706 11.7118 72.7149 11.3419Z" fill="#111827" />
        <path d="M83.8035 7.31506C82.1133 7.31506 81.0417 8.13698 80.5466 9.12327V3H77.7441V17.589H80.5466V11.7945C80.5466 10.3151 81.4534 9.57532 82.6492 9.57532C83.8856 9.57532 84.4214 10.2328 84.4214 11.589V17.589H87.2245V11.1781C87.1832 8.50684 85.7819 7.31506 83.8035 7.31506Z" fill="#111827" />
        <path d="M93.2429 7.31641C90.77 7.31641 88.8737 8.05613 88.7089 10.4397H91.3472C91.4707 9.57668 91.9651 9.3301 93.0781 9.3301C94.3559 9.3301 94.7269 9.98766 94.7269 11.1794V11.5904H93.5732C90.4811 11.5904 88.3379 12.4534 88.3379 14.7958C88.3379 16.8917 89.8632 17.7958 91.7182 17.7958C93.2843 17.7958 94.1911 17.1794 94.7683 16.3575V17.5492H97.4887V11.0561C97.448 8.30271 95.6751 7.31641 93.2429 7.31641ZM94.6862 14.0561C94.6862 15.1657 93.738 15.8232 92.5009 15.8232C91.4707 15.8232 91.0583 15.3301 91.0583 14.6315C91.0583 13.563 92.0065 13.1931 93.6139 13.1931H94.6862V14.0561Z" fill="#111827" />
        <path d="M104.621 7.31641C102.93 7.31641 101.859 8.13832 101.364 9.12462V7.52189H98.5605V17.5492H101.364V11.7958C101.364 10.3164 102.271 9.57668 103.466 9.57668C104.703 9.57668 105.238 10.2342 105.238 11.5904V17.5903H108.042V11.1794C108 8.50818 106.599 7.31641 104.621 7.31641Z" fill="#111827" />
        <path d="M116.739 9.04108C116.162 8.01369 115.172 7.31506 113.565 7.31506C111.051 7.31506 109.154 9.24657 109.154 12.5343V12.6986C109.154 16.0273 111.091 17.7945 113.524 17.7945C115.007 17.7945 116.244 16.9315 116.739 15.9041V17.589H119.501V3H116.739V9.04108ZM116.821 12.6164C116.821 14.6301 115.791 15.6164 114.348 15.6164C112.946 15.6164 111.998 14.6301 111.998 12.6575V12.4931C111.998 10.4794 112.864 9.45202 114.43 9.45202C115.956 9.45202 116.821 10.4794 116.821 12.452V12.6164Z" fill="#111827" />
        <path d="M128.321 7.5625L126.054 13.5625L123.622 7.5625H120.613L124.611 16.5625L122.839 21.0008H125.56L131 7.5625H128.321Z" fill="#111827" />
    </g>
    <defs>
        <clipPath id="clip0_655_16396">
            <rect width="131" height="24" fill="white" />
        </clipPath>
        <clipPath id="clip1_655_16396">
            <rect width="23.9543" height="24" fill="white" />
        </clipPath>
    </defs>
</svg>