<svg width="17" height="16" viewBox="0 0 17 16" fill="none" xmlns="http://www.w3.org/2000/svg">
<path fill-rule="evenodd" clip-rule="evenodd" d="M8.0905 2.66732C5.14498 2.66732 2.75716 5.05513 2.75716 8.00065C2.75716 10.9462 5.14498 13.334 8.0905 13.334C11.036 13.334 13.4238 10.9462 13.4238 8.00065C13.4238 5.05513 11.036 2.66732 8.0905 2.66732ZM1.42383 8.00065C1.42383 4.31875 4.4086 1.33398 8.0905 1.33398C11.7724 1.33398 14.7572 4.31875 14.7572 8.00065C14.7572 11.6826 11.7724 14.6673 8.0905 14.6673C4.4086 14.6673 1.42383 11.6826 1.42383 8.00065Z" fill="#D97706"/>
<path fill-rule="evenodd" clip-rule="evenodd" d="M8.0905 4.66981C8.45868 4.66981 8.75716 4.96829 8.75716 5.33648V8.00315C8.75716 8.37134 8.45868 8.66981 8.0905 8.66981C7.72231 8.66981 7.42383 8.37134 7.42383 8.00315V5.33648C7.42383 4.96829 7.72231 4.66981 8.0905 4.66981Z" fill="#D97706"/>
<path fill-rule="evenodd" clip-rule="evenodd" d="M7.42383 10.6648C7.42383 10.2966 7.72231 9.99816 8.0905 9.99816H8.09716C8.46535 9.99816 8.76383 10.2966 8.76383 10.6648C8.76383 11.033 8.46535 11.3315 8.09716 11.3315H8.0905C7.72231 11.3315 7.42383 11.033 7.42383 10.6648Z" fill="#D97706"/>
</svg>
