<svg width="17" height="17" viewBox="0 0 17 17" fill="none" xmlns="http://www.w3.org/2000/svg">
<path fill-rule="evenodd" clip-rule="evenodd" d="M8.02507 5.52832C8.39325 5.52832 8.69173 5.8268 8.69173 6.19499V7.52832C8.69173 7.89651 8.39325 8.19499 8.02507 8.19499C7.65688 8.19499 7.3584 7.89651 7.3584 7.52832V6.19499C7.3584 5.8268 7.65688 5.52832 8.02507 5.52832ZM8.02507 9.52832C8.39325 9.52832 8.69173 9.8268 8.69173 10.195V10.2017C8.69173 10.5698 8.39325 10.8683 8.02507 10.8683C7.65688 10.8683 7.3584 10.5698 7.3584 10.2017V10.195C7.3584 9.8268 7.65688 9.52832 8.02507 9.52832Z" fill="#B91C1C"/>
<path fill-rule="evenodd" clip-rule="evenodd" d="M7.01 1.78202C7.31775 1.60058 7.66849 1.50488 8.02575 1.50488C8.38301 1.50488 8.73375 1.60058 9.0415 1.78202C9.3478 1.96261 9.6004 2.22157 9.77329 2.53221L14.4379 10.6953C14.4526 10.721 14.4656 10.7477 14.4767 10.7752C14.5968 11.0707 14.6444 11.3908 14.6156 11.7085C14.5868 12.0262 14.4824 12.3324 14.3111 12.6016C14.1398 12.8707 13.9066 13.095 13.631 13.2557C13.3554 13.4163 13.0453 13.5087 12.7267 13.5252C12.7153 13.5258 12.7039 13.5261 12.6924 13.5261H3.40575C3.3981 13.5261 3.39048 13.5259 3.38288 13.5257C3.36369 13.5263 3.3443 13.5262 3.32476 13.5252C3.00616 13.5087 2.6961 13.4163 2.42049 13.2557C2.14487 13.095 1.91169 12.8707 1.74041 12.6016C1.56913 12.3324 1.46473 12.0262 1.43591 11.7085C1.40709 11.3908 1.4547 11.0707 1.57476 10.7752C1.58591 10.7477 1.59889 10.721 1.61359 10.6953L6.27821 2.53221C6.45111 2.22157 6.7037 1.96261 7.01 1.78202ZM3.38416 12.1931C3.39133 12.1928 3.39853 12.1927 3.40575 12.1927H12.6723C12.7735 12.1853 12.8717 12.1549 12.9595 12.1038C13.0514 12.0502 13.1291 11.9755 13.1862 11.8857C13.2433 11.796 13.2781 11.6939 13.2877 11.588C13.2962 11.4944 13.2848 11.4002 13.2544 11.3115L8.60903 3.18216C8.55138 3.07796 8.46692 2.99108 8.36434 2.9306C8.26175 2.87011 8.14484 2.83822 8.02575 2.83822C7.90666 2.83822 7.78975 2.87011 7.68717 2.9306C7.58458 2.99108 7.50007 3.07793 7.44242 3.18213L7.43797 3.19018L2.79714 11.3115C2.76672 11.4002 2.7553 11.4944 2.76379 11.588C2.7734 11.6939 2.8082 11.796 2.86529 11.8857C2.92239 11.9755 3.00011 12.0502 3.09199 12.1038C3.18119 12.1558 3.28121 12.1863 3.38416 12.1931Z" fill="#B91C1C"/>
</svg>
