<svg width="16" height="16" viewBox="0 0 16 16" fill="none" xmlns="http://www.w3.org/2000/svg">
<path fill-rule="evenodd" clip-rule="evenodd" d="M8.0905 2.66732C5.14498 2.66732 2.75716 5.05513 2.75716 8.00065C2.75716 10.9462 5.14498 13.334 8.0905 13.334C11.036 13.334 13.4238 10.9462 13.4238 8.00065C13.4238 5.05513 11.036 2.66732 8.0905 2.66732ZM1.42383 8.00065C1.42383 4.31875 4.4086 1.33398 8.0905 1.33398C11.7724 1.33398 14.7572 4.31875 14.7572 8.00065C14.7572 11.6826 11.7724 14.6673 8.0905 14.6673C4.4086 14.6673 1.42383 11.6826 1.42383 8.00065Z" fill="#6B7280"/>
<path fill-rule="evenodd" clip-rule="evenodd" d="M10.5619 6.20112C10.8222 6.46147 10.8222 6.88358 10.5619 7.14393L7.89523 9.8106C7.63488 10.0709 7.21277 10.0709 6.95242 9.8106L5.61909 8.47726C5.35874 8.21691 5.35874 7.7948 5.61909 7.53445C5.87944 7.2741 6.30155 7.2741 6.5619 7.53445L7.42383 8.39638L9.61909 6.20112C9.87944 5.94077 10.3015 5.94077 10.5619 6.20112Z" fill="#6B7280"/>
</svg>
