<svg width="16" height="16" viewBox="0 0 16 16" fill="none" xmlns="http://www.w3.org/2000/svg">
<path fill-rule="evenodd" clip-rule="evenodd" d="M6.66667 5.99588C6.29848 5.99588 6 6.29435 6 6.66254V11.9959C6 12.3641 6.29848 12.6625 6.66667 12.6625H12C12.3682 12.6625 12.6667 12.3641 12.6667 11.9959V6.66254C12.6667 6.29435 12.3682 5.99588 12 5.99588H6.66667ZM4.66667 6.66254C4.66667 5.55797 5.5621 4.66254 6.66667 4.66254H12C13.1046 4.66254 14 5.55797 14 6.66254V11.9959C14 13.1004 13.1046 13.9959 12 13.9959H6.66667C5.5621 13.9959 4.66667 13.1004 4.66667 11.9959V6.66254Z" fill="#9CA3AF"/>
<path fill-rule="evenodd" clip-rule="evenodd" d="M2.58579 2.59165C2.96086 2.21657 3.46957 2.00586 4 2.00586H9.33333C9.86377 2.00586 10.3725 2.21657 10.7475 2.59165C11.1226 2.96672 11.3333 3.47543 11.3333 4.00586V5.33919C11.3333 5.70738 11.0349 6.00586 10.6667 6.00586C10.2985 6.00586 10 5.70738 10 5.33919V4.00586C10 3.82905 9.92976 3.65948 9.80474 3.53445C9.67971 3.40943 9.51014 3.33919 9.33333 3.33919H4C3.82319 3.33919 3.65362 3.40943 3.5286 3.53445C3.40357 3.65948 3.33333 3.82905 3.33333 4.00586V9.33919C3.33333 9.516 3.40357 9.68557 3.5286 9.8106C3.65362 9.93562 3.82319 10.0059 4 10.0059H5.33333C5.70152 10.0059 6 10.3043 6 10.6725C6 11.0407 5.70152 11.3392 5.33333 11.3392H4C3.46957 11.3392 2.96086 11.1285 2.58579 10.7534C2.21071 10.3783 2 9.86963 2 9.33919V4.00586C2 3.47543 2.21071 2.96672 2.58579 2.59165Z" fill="#9CA3AF"/>
</svg>
