<svg width="14" height="14" viewBox="0 0 14 14" fill="none" xmlns="http://www.w3.org/2000/svg">
<path fill-rule="evenodd" clip-rule="evenodd" d="M2.99915 2.61134C3.10457 2.43563 3.29445 2.32812 3.49936 2.32812H10.4994C10.7043 2.32812 10.8941 2.43563 10.9996 2.61134L12.7496 5.528C12.8811 5.74723 12.8546 6.02656 12.6841 6.21709L7.72575 11.7588C7.71987 11.7653 7.71385 11.7717 7.70769 11.778C7.61536 11.8723 7.50515 11.9471 7.38352 11.9983C7.26189 12.0494 7.13128 12.0757 6.99936 12.0757C6.86743 12.0757 6.73682 12.0494 6.61519 11.9983C6.49356 11.9471 6.38335 11.8723 6.29102 11.778C6.28486 11.7717 6.27884 11.7653 6.27296 11.7588L1.31463 6.21709C1.14416 6.02656 1.11762 5.74723 1.24915 5.528L2.99915 2.61134ZM3.82963 3.49479L2.47076 5.75957L6.99936 10.8209L11.5279 5.75957L10.1691 3.49479H3.82963Z" fill="#1D4ED8"/>
<path fill-rule="evenodd" clip-rule="evenodd" d="M5.31745 4.63986C5.5937 4.80561 5.68328 5.16393 5.51753 5.44018L5.39057 5.65178L6.26562 6.61434C6.48234 6.85272 6.46477 7.22165 6.22638 7.43836C5.988 7.65507 5.61907 7.6375 5.40236 7.39912L4.23569 6.11579C4.06257 5.92535 4.03471 5.64396 4.16712 5.42327L4.51712 4.83994C4.68287 4.56368 5.04119 4.4741 5.31745 4.63986Z" fill="#1D4ED8"/>
</svg>
