<svg width="16" height="16" viewBox="0 0 16 16" fill="none" xmlns="http://www.w3.org/2000/svg">
<path fill-rule="evenodd" clip-rule="evenodd" d="M6.66602 7.99588C6.66602 7.2595 7.26297 6.66254 7.99935 6.66254C8.73573 6.66254 9.33268 7.2595 9.33268 7.99588C9.33268 8.73226 8.73573 9.32921 7.99935 9.32921C7.26297 9.32921 6.66602 8.73226 6.66602 7.99588Z" fill="#6B7280"/>
<path fill-rule="evenodd" clip-rule="evenodd" d="M6.66602 12.6675C6.66602 11.9312 7.26297 11.3342 7.99935 11.3342C8.73573 11.3342 9.33268 11.9312 9.33268 12.6675C9.33268 13.4039 8.73573 14.0009 7.99935 14.0009C7.26297 14.0009 6.66602 13.4039 6.66602 12.6675Z" fill="#6B7280"/>
<path fill-rule="evenodd" clip-rule="evenodd" d="M6.66602 3.33919C6.66602 2.60281 7.26297 2.00586 7.99935 2.00586C8.73573 2.00586 9.33268 2.60281 9.33268 3.33919C9.33268 4.07557 8.73573 4.67253 7.99935 4.67253C7.26297 4.67253 6.66602 4.07557 6.66602 3.33919Z" fill="#6B7280"/>
</svg>
