<svg width="16" height="16" viewBox="0 0 16 16" fill="none" xmlns="http://www.w3.org/2000/svg">
<path d="M15 8C15.5523 8 16.0064 7.55055 15.9376 7.00257C15.77 5.66914 15.2684 4.39365 14.4721 3.29772C13.4791 1.93094 12.0789 0.913612 10.4721 0.391548C8.86539 -0.130516 7.13461 -0.130516 5.52786 0.391548C3.92112 0.913612 2.52089 1.93094 1.52786 3.29772C0.534839 4.6645 -1.47695e-07 6.31057 0 8C1.47695e-07 9.68944 0.53484 11.3355 1.52786 12.7023C2.52089 14.0691 3.92112 15.0864 5.52786 15.6085C6.81621 16.0271 8.18429 16.11 9.50424 15.8573C10.0467 15.7535 10.3338 15.1826 10.1631 14.6574C9.99245 14.1321 9.42802 13.8537 8.88173 13.9349C7.96881 14.0705 7.0322 13.9943 6.1459 13.7063C4.94084 13.3148 3.89067 12.5518 3.1459 11.5267C2.40113 10.5016 2 9.26708 2 8C2 6.73292 2.40113 5.49837 3.1459 4.47329C3.89067 3.4482 4.94084 2.68521 6.1459 2.29366C7.35096 1.90211 8.64904 1.90211 9.8541 2.29366C11.0592 2.68521 12.1093 3.4482 12.8541 4.47329C13.4019 5.22722 13.7637 6.09445 13.9169 7.0046C14.0085 7.54923 14.4477 8 15 8Z" fill="#1D4ED8"/>
</svg>
