<svg width="17" height="16" viewBox="0 0 17 16" fill="none" xmlns="http://www.w3.org/2000/svg">
<path fill-rule="evenodd" clip-rule="evenodd" d="M3.83406 3.99544C3.46587 3.99544 3.16739 4.29392 3.16739 4.66211V11.3288C3.16739 11.697 3.46587 11.9954 3.83406 11.9954H13.1674C13.5356 11.9954 13.8341 11.697 13.8341 11.3288V4.66211C13.8341 4.29392 13.5356 3.99544 13.1674 3.99544H3.83406ZM1.83406 4.66211C1.83406 3.55754 2.72949 2.66211 3.83406 2.66211H13.1674C14.272 2.66211 15.1674 3.55754 15.1674 4.66211V11.3288C15.1674 12.4333 14.272 13.3288 13.1674 13.3288H3.83406C2.72949 13.3288 1.83406 12.4333 1.83406 11.3288V4.66211Z" fill="white"/>
<path fill-rule="evenodd" clip-rule="evenodd" d="M1.94602 4.30229C2.15026 3.99594 2.56417 3.91316 2.87052 4.11739L8.50072 7.87086L14.1309 4.11739C14.4373 3.91316 14.8512 3.99594 15.0554 4.30229C15.2597 4.60864 15.1769 5.02256 14.8705 5.22679L8.87052 9.22679C8.64659 9.37608 8.35485 9.37608 8.13092 9.22679L2.13092 5.22679C1.82457 5.02256 1.74179 4.60864 1.94602 4.30229Z" fill="white"/>
</svg>
