<svg width="16" height="16" viewBox="0 0 16 16" fill="none" xmlns="http://www.w3.org/2000/svg">
<path fill-rule="evenodd" clip-rule="evenodd" d="M13.9993 10.2879V12.2897C13.9993 13.3943 13.1039 14.2897 11.9993 14.2897H2.66602C1.56145 14.2897 0.666016 13.3943 0.666016 12.2897V5.64214V5.62269C0.666209 4.51828 1.56157 3.62305 2.66602 3.62305H5.77571C5.85239 4.0819 5.96812 4.52752 6.11938 4.95638H2.66602C2.40555 4.95638 2.17996 5.10576 2.07026 5.32352L7.33268 8.8318L8.27369 8.20445C8.62057 8.52114 8.99543 8.80769 9.39412 9.05997L7.70248 10.1877C7.47855 10.337 7.18681 10.337 6.96288 10.1877L1.99935 6.87871V12.2897C1.99935 12.6579 2.29783 12.9564 2.66602 12.9564H11.9993C12.3675 12.9564 12.666 12.6579 12.666 12.2897V10.2329C12.9936 10.2737 13.3273 10.2948 13.6659 10.2948C13.7776 10.2948 13.8888 10.2925 13.9993 10.2879Z" fill="#1D4ED8"/>
<path fill-rule="evenodd" clip-rule="evenodd" d="M7.60881 1.92316C7.5259 1.92316 7.44639 1.95609 7.38777 2.01472C7.33253 2.06995 7.3001 2.14373 7.29653 2.22142C7.40403 3.89498 8.11734 5.47246 9.30355 6.65867C10.4898 7.84488 12.0672 8.55819 13.7408 8.66569C13.8185 8.66212 13.8923 8.62969 13.9475 8.57446C14.0061 8.51583 14.0391 8.43632 14.0391 8.35341V6.89662L12.5783 6.31231L12.1478 7.02975C11.9795 7.31026 11.6242 7.41479 11.3308 7.27009C10.1848 6.70492 9.25731 5.77742 8.69213 4.63144C8.54743 4.33805 8.65196 3.98272 8.93247 3.81442L9.64992 3.38395L9.0656 1.92316H7.60881ZM6.49883 1.12578C6.79322 0.831399 7.19249 0.666016 7.60881 0.666016H9.49116C9.74819 0.666016 9.97932 0.822499 10.0748 1.06114L11.016 3.41408C11.1305 3.70053 11.0203 4.02779 10.7557 4.18652L10.1072 4.57567C10.4436 5.08348 10.8787 5.51863 11.3865 5.85507L11.7757 5.20648C11.9344 4.94194 12.2617 4.83169 12.5481 4.94627L14.9011 5.88744C15.1397 5.9829 15.2962 6.21403 15.2962 6.47106V8.35341C15.2962 8.76973 15.1308 9.16901 14.8364 9.46339C14.5421 9.75778 14.1428 9.92316 13.7265 9.92316C13.7137 9.92316 13.701 9.92277 13.6883 9.922C11.6994 9.80114 9.82356 8.95655 8.41462 7.54761C7.00567 6.13866 6.16109 4.26278 6.04022 2.27389C6.03945 2.2612 6.03906 2.24848 6.03906 2.23576C6.03906 1.81944 6.20445 1.42017 6.49883 1.12578Z" fill="#1D4ED8"/>
</svg>
