<svg width="17" height="16" viewBox="0 0 17 16" fill="none" xmlns="http://www.w3.org/2000/svg">
<path fill-rule="evenodd" clip-rule="evenodd" d="M4.42332 2.69968C4.49422 2.67481 4.56882 2.66211 4.64395 2.66211H13.3106C13.3858 2.66211 13.4603 2.67481 13.5312 2.69968C13.7233 2.76702 13.8973 2.87743 14.0401 3.02243C14.1829 3.16743 14.2905 3.34319 14.3549 3.53624C14.4192 3.72928 14.4386 3.9345 14.4113 4.13616C14.3841 4.33783 14.3111 4.53059 14.1979 4.69968C14.1796 4.72699 14.1594 4.75291 14.1372 4.77722L10.9773 8.25318V12.6621C10.9773 12.9146 10.8346 13.1455 10.6088 13.2584C10.3829 13.3713 10.1126 13.347 9.91062 13.1954L7.24395 11.1954C7.07608 11.0695 6.97728 10.8719 6.97728 10.6621V8.25318L3.81733 4.77722C3.79522 4.75291 3.77494 4.72699 3.75665 4.69968C3.64344 4.53059 3.57043 4.33783 3.54322 4.13616C3.51601 3.9345 3.53532 3.72929 3.59967 3.53624C3.66402 3.34319 3.7717 3.16743 3.91447 3.02243C4.05724 2.87742 4.2313 2.76702 4.42332 2.69968ZM4.90856 3.99544L8.13725 7.54699C8.2488 7.66971 8.31062 7.8296 8.31062 7.99544V10.3288L9.64395 11.3288V7.99544C9.64395 7.8296 9.70577 7.66971 9.81732 7.54699L13.046 3.99544H4.90856Z" fill="#1D4ED8"/>
</svg>
