<svg width="17" height="16" viewBox="0 0 17 16" fill="none" xmlns="http://www.w3.org/2000/svg">
<path fill-rule="evenodd" clip-rule="evenodd" d="M3.81785 2.69968C3.88875 2.67481 3.96335 2.66211 4.03848 2.66211H12.7051C12.7803 2.66211 12.8549 2.67481 12.9258 2.69968C13.1178 2.76702 13.2919 2.87743 13.4346 3.02243C13.5774 3.16743 13.6851 3.34319 13.7494 3.53624C13.8138 3.72928 13.8331 3.9345 13.8059 4.13616C13.7787 4.33783 13.7057 4.53059 13.5924 4.69968C13.5742 4.72699 13.5539 4.75291 13.5318 4.77722L10.3718 8.25318V12.6621C10.3718 12.9146 10.2291 13.1455 10.0033 13.2584C9.77744 13.3713 9.50716 13.347 9.30515 13.1954L6.63848 11.1954C6.47061 11.0695 6.37182 10.8719 6.37182 10.6621V8.25318L3.21186 4.77722C3.18975 4.75291 3.16947 4.72699 3.15118 4.69968C3.03797 4.53059 2.96497 4.33783 2.93776 4.13616C2.91055 3.9345 2.92985 3.72929 2.9942 3.53624C3.05855 3.34319 3.16623 3.16743 3.309 3.02243C3.45177 2.87742 3.62583 2.76702 3.81785 2.69968ZM4.30309 3.99544L7.53178 7.54699C7.64334 7.66971 7.70515 7.8296 7.70515 7.99544V10.3288L9.03848 11.3288V7.99544C9.03848 7.8296 9.1003 7.66971 9.21186 7.54699L12.4405 3.99544H4.30309Z" fill="#6B7280"/>
</svg>
