<svg width="17" height="16" viewBox="0 0 17 16" fill="none" xmlns="http://www.w3.org/2000/svg">
<path fill-rule="evenodd" clip-rule="evenodd" d="M3.87891 3.99544C3.51072 3.99544 3.21224 4.29392 3.21224 4.66211V11.3288C3.21224 11.697 3.51072 11.9954 3.87891 11.9954H13.2122C13.5804 11.9954 13.8789 11.697 13.8789 11.3288V4.66211C13.8789 4.29392 13.5804 3.99544 13.2122 3.99544H3.87891ZM1.87891 4.66211C1.87891 3.55754 2.77434 2.66211 3.87891 2.66211H13.2122C14.3168 2.66211 15.2122 3.55754 15.2122 4.66211V11.3288C15.2122 12.4333 14.3168 13.3288 13.2122 13.3288H3.87891C2.77434 13.3288 1.87891 12.4333 1.87891 11.3288V4.66211Z" fill="#9CA3AF"/>
<path fill-rule="evenodd" clip-rule="evenodd" d="M1.99094 4.3028C2.19518 3.99644 2.60909 3.91366 2.91544 4.1179L8.54564 7.87136L14.1758 4.1179C14.4822 3.91366 14.8961 3.99644 15.1003 4.3028C15.3046 4.60915 15.2218 5.02306 14.9154 5.2273L8.91544 9.2273C8.69151 9.37659 8.39978 9.37659 8.17584 9.2273L2.17584 5.2273C1.86949 5.02306 1.78671 4.60915 1.99094 4.3028Z" fill="#9CA3AF"/>
</svg>
