<svg width="17" height="16" viewBox="0 0 17 16" fill="none" xmlns="http://www.w3.org/2000/svg">
<path fill-rule="evenodd" clip-rule="evenodd" d="M3.87891 3.33898C3.7021 3.33898 3.53253 3.40921 3.4075 3.53424C3.28651 3.65523 3.21683 3.81794 3.21246 3.98855C3.36579 6.41784 4.39997 8.70812 6.12153 10.4297C7.84309 12.1513 10.1334 13.1854 12.5627 13.3388C12.7333 13.3344 12.896 13.2647 13.017 13.1437C13.142 13.0187 13.2122 12.8491 13.2122 12.6723V10.457L10.8251 9.50215L10.1172 10.682C9.93873 10.9795 9.56187 11.0903 9.2507 10.9369C7.6714 10.158 6.39321 8.87981 5.61433 7.30052C5.46087 6.98935 5.57173 6.61249 5.86924 6.43398L7.04906 5.72609L6.09422 3.33898H3.87891ZM2.46469 2.59143C2.83977 2.21636 3.34847 2.00564 3.87891 2.00564H6.54557C6.81818 2.00564 7.06332 2.17161 7.16456 2.42472L8.49789 5.75805C8.61941 6.06186 8.50249 6.40895 8.2219 6.5773L7.1059 7.2469C7.65515 8.14265 8.40856 8.89607 9.30431 9.44531L9.97391 8.32931C10.1423 8.04873 10.4894 7.9318 10.7932 8.05332L14.1265 9.38666C14.3796 9.4879 14.5456 9.73304 14.5456 10.0056V12.6723C14.5456 13.2027 14.3349 13.7115 13.9598 14.0865C13.5847 14.4616 13.076 14.6723 12.5456 14.6723C12.5321 14.6723 12.5186 14.6719 12.5051 14.6711C9.74211 14.5032 7.13608 13.3299 5.17872 11.3725C3.22137 9.41514 2.04804 6.8091 1.88013 4.04608C1.87932 4.03262 1.87891 4.01913 1.87891 4.00564C1.87891 3.47521 2.08962 2.9665 2.46469 2.59143Z" fill="#9CA3AF"/>
<path fill-rule="evenodd" clip-rule="evenodd" d="M9.87891 4.67231C9.87891 4.30412 10.1774 4.00564 10.5456 4.00564C11.076 4.00564 11.5847 4.21636 11.9598 4.59143C12.3349 4.9665 12.5456 5.47521 12.5456 6.00564C12.5456 6.37383 12.2471 6.67231 11.8789 6.67231C11.5107 6.67231 11.2122 6.37383 11.2122 6.00564C11.2122 5.82883 11.142 5.65926 11.017 5.53424C10.892 5.40921 10.7224 5.33898 10.5456 5.33898C10.1774 5.33898 9.87891 5.0405 9.87891 4.67231Z" fill="#9CA3AF"/>
<path fill-rule="evenodd" clip-rule="evenodd" d="M9.87891 2.00065C9.87891 1.63246 10.1774 1.33398 10.5456 1.33398C11.7833 1.33398 12.9702 1.82565 13.8454 2.70082C14.7206 3.57599 15.2122 4.76297 15.2122 6.00065C15.2122 6.36884 14.9138 6.66732 14.5456 6.66732C14.1774 6.66732 13.8789 6.36884 13.8789 6.00065C13.8789 5.1166 13.5277 4.26875 12.9026 3.64363C12.2775 3.01851 11.4296 2.66732 10.5456 2.66732C10.1774 2.66732 9.87891 2.36884 9.87891 2.00065Z" fill="#9CA3AF"/>
</svg>
