<svg width="88" height="16" viewBox="0 0 88 16" fill="none" xmlns="http://www.w3.org/2000/svg">
<g clip-path="url(#clip0_37695_12556)">
<g clip-path="url(#clip1_37695_12556)">
<path d="M4.30079 0.541016C3.70346 0.541016 3.40431 1.2555 3.82669 1.67337L14.9471 12.675C15.3695 13.0929 16.0917 12.7969 16.0917 12.206V1.20433C16.0917 0.837993 15.7915 0.541016 15.4212 0.541016H4.30079Z" fill="#1D4ED8"/>
<path d="M7.85798 14.948C8.17476 15.2614 8.71641 15.0395 8.71641 14.5963V8.33499C8.71641 8.06023 8.49128 7.8375 8.21355 7.8375H1.88469C1.43669 7.8375 1.21233 8.37336 1.52912 8.68676L7.85798 14.948Z" fill="#1D4ED8"/>
<path d="M3.45078 15.8944C3.66197 16.1034 4.02307 15.9554 4.02307 15.6599V12.8124C4.02307 12.6292 3.87298 12.4807 3.68783 12.4807H0.809544C0.510878 12.4807 0.361305 12.838 0.572494 13.0469L3.45078 15.8944Z" fill="#1D4ED8"/>
</g>
<path d="M25.3103 8.06589C24.3412 7.92956 24.0089 7.76603 24.0089 7.32985C24.0089 6.92096 24.3689 6.64838 24.978 6.64838C25.6149 6.64838 25.9472 6.89371 26.0303 7.43893H27.7471C27.5809 5.91238 26.4456 5.36719 24.9503 5.36719C23.5658 5.36719 22.2644 6.04867 22.2644 7.43893C22.2644 8.74735 22.9567 9.23802 24.7565 9.51063C25.7257 9.64692 26.1133 9.83774 26.1133 10.3012C26.1133 10.7646 25.7811 11.0372 25.0611 11.0372C24.2581 11.0372 23.9535 10.6828 23.8705 10.0831H22.126C22.1813 11.5278 23.2613 12.3184 25.0611 12.3184C26.8333 12.3184 27.9132 11.5551 27.9132 10.1376C27.9409 8.7201 26.9994 8.31121 25.3103 8.06589Z" fill="#202020"/>
<path d="M31.9836 5.39453C30.3222 5.39453 29.0485 5.8852 28.9377 7.46627H30.7099C30.7929 6.89381 31.1252 6.73025 31.8729 6.73025C32.7312 6.73025 32.9804 7.16642 32.9804 7.95691V8.22952H32.2051C30.1284 8.22952 28.6885 8.80198 28.6885 10.3558C28.6885 11.746 29.713 12.3457 30.9591 12.3457C32.0113 12.3457 32.6205 11.9368 33.0081 11.3916V12.1821H34.8357V7.87516C34.808 6.04876 33.645 5.39453 31.9836 5.39453ZM32.9527 9.86508C32.9527 10.6011 32.3159 11.0373 31.4852 11.0373C30.7929 11.0373 30.5161 10.7102 30.5161 10.2467C30.5161 9.53798 31.1529 9.29266 32.2328 9.29266H32.9527V9.86508Z" fill="#202020"/>
<path d="M37.4119 2.53125H35.5566V12.2084H37.4119V2.53125Z" fill="#202020"/>
<path d="M41.6472 5.39453C39.6812 5.39453 38.1582 6.75751 38.1582 8.85648V8.96551C38.1582 11.0918 39.6535 12.3457 41.6748 12.3457C43.5301 12.3457 44.693 11.5552 44.9146 10.1104H43.1424C43.0317 10.6829 42.5886 11.0373 41.7302 11.0373C40.7057 11.0373 40.0965 10.4103 40.0411 9.29266H44.9146V8.77473C44.9423 6.40314 43.3916 5.39453 41.6472 5.39453ZM40.0965 8.14773C40.235 7.19366 40.8165 6.64847 41.6472 6.64847C42.5332 6.64847 43.0593 7.13913 43.1147 8.14773H40.0965Z" fill="#202020"/>
<path d="M48.8474 8.06394C47.8783 7.92761 47.546 7.76408 47.546 7.3279C47.546 6.91901 47.906 6.64643 48.5152 6.64643C49.152 6.64643 49.4843 6.89176 49.5674 7.43698H51.2842C51.118 5.91043 49.9827 5.36523 48.4875 5.36523C47.103 5.36523 45.8015 6.04672 45.8015 7.43698C45.8015 8.74539 46.4938 9.23607 48.2936 9.50868C49.2628 9.64496 49.6504 9.83578 49.6504 10.2992C49.6504 10.7626 49.3182 11.0352 48.5982 11.0352C47.7952 11.0352 47.4906 10.6809 47.4076 10.0811H45.6631C45.7184 11.5259 46.7984 12.3164 48.5982 12.3164C50.3704 12.3164 51.4503 11.5531 51.4503 10.1356C51.478 8.71815 50.5642 8.30925 48.8474 8.06394Z" fill="#202020"/>
<path d="M56.2941 5.3935C55.1587 5.3935 54.4388 5.93869 54.1062 6.59292V2.53125H52.2236V12.2084H54.1062V8.3648C54.1062 7.38345 54.7154 6.89277 55.5186 6.89277C56.3492 6.89277 56.7091 7.32891 56.7091 8.22848V12.2084H58.5922V7.95591C58.5644 6.18403 57.6231 5.3935 56.2941 5.3935Z" fill="#202020"/>
<path d="M62.6358 5.39453C60.9746 5.39453 59.7008 5.8852 59.59 7.46627H61.3623C61.4453 6.89381 61.7774 6.73025 62.5251 6.73025C63.3834 6.73025 63.6327 7.16642 63.6327 7.95691V8.22952H62.8577C60.7806 8.22952 59.3408 8.80198 59.3408 10.3558C59.3408 11.746 60.3655 12.3457 61.6116 12.3457C62.6636 12.3457 63.2727 11.9368 63.6604 11.3916V12.1821H65.4879V7.87516C65.4605 6.04876 64.2696 5.39453 62.6358 5.39453ZM63.6053 9.86508C63.6053 10.6011 62.9684 11.0373 62.1374 11.0373C61.4453 11.0373 61.1683 10.7102 61.1683 10.2467C61.1683 9.53798 61.8052 9.29266 62.885 9.29266H63.6053V9.86508Z" fill="#202020"/>
<path d="M70.2798 5.39453C69.1445 5.39453 68.4246 5.93972 68.092 6.59395V5.53083H66.209V12.1821H68.092V8.3658C68.092 7.38449 68.7012 6.89381 69.5044 6.89381C70.335 6.89381 70.6949 7.32995 70.6949 8.22952V12.2094H72.5779V7.95691C72.5502 6.18506 71.6089 5.39453 70.2798 5.39453Z" fill="#202020"/>
<path d="M78.4212 6.5384C78.0335 5.85691 77.3688 5.3935 76.289 5.3935C74.6001 5.3935 73.3262 6.6747 73.3262 8.85548V8.96452C73.3262 11.1725 74.6274 12.3447 76.2612 12.3447C77.2581 12.3447 78.0887 11.7722 78.4212 11.0908V12.2084H80.2765V2.53125H78.4212V6.5384ZM78.4764 8.90998C78.4764 10.2457 77.7843 10.8999 76.8152 10.8999C75.8735 10.8999 75.2366 10.2457 75.2366 8.93723V8.82819C75.2366 7.49248 75.8184 6.81098 76.8704 6.81098C77.895 6.81098 78.4764 7.49248 78.4764 8.80094V8.90998Z" fill="#202020"/>
<path d="M86.2005 5.55859L84.6774 9.53848L83.0436 5.55859H81.0225L83.7083 11.5284L82.5173 14.4725H84.3452L88.0002 5.55859H86.2005Z" fill="#202020"/>
</g>
<defs>
<clipPath id="clip0_37695_12556">
<rect width="88" height="15.9196" fill="white" transform="translate(0 0.541016)"/>
</clipPath>
<clipPath id="clip1_37695_12556">
<rect width="16.0915" height="15.9196" fill="white" transform="translate(0 0.541016)"/>
</clipPath>
</defs>
</svg>
