<svg width="16" height="16" viewBox="0 0 16 16" fill="none" xmlns="http://www.w3.org/2000/svg">
<path fill-rule="evenodd" clip-rule="evenodd" d="M14.4711 1.52927C14.7315 1.78961 14.7315 2.21172 14.4711 2.47207L7.13779 9.80541C6.87744 10.0658 6.45533 10.0658 6.19498 9.80541C5.93463 9.54506 5.93463 9.12295 6.19498 8.8626L13.5283 1.52927C13.7887 1.26892 14.2108 1.26892 14.4711 1.52927Z" fill="#1D4ED8"/>
<path fill-rule="evenodd" clip-rule="evenodd" d="M14.4711 1.52927C14.6539 1.71204 14.7145 1.98399 14.6268 2.2271L10.2934 14.2271C10.2871 14.2445 10.2801 14.2616 10.2724 14.2784C10.19 14.4583 10.0577 14.6107 9.89115 14.7176C9.72463 14.8244 9.53092 14.8813 9.33306 14.8813C9.13519 14.8813 8.94148 14.8244 8.77496 14.7176C8.61242 14.6133 8.48245 14.4656 8.39966 14.2913L6.16948 9.83091L1.70914 7.60073C1.53485 7.51795 1.38713 7.38798 1.28282 7.22543C1.17595 7.05891 1.11914 6.8652 1.11914 6.66734C1.11914 6.46947 1.17595 6.27576 1.28282 6.10924C1.38968 5.94271 1.54211 5.81037 1.72199 5.72794C1.73879 5.72024 1.75591 5.71324 1.77329 5.70697L13.7733 1.37363C14.0164 1.28584 14.2884 1.34649 14.4711 1.52927ZM2.91423 6.71257L6.96453 8.73772C7.09355 8.80223 7.19816 8.90684 7.26267 9.03586L9.28782 13.0862L12.8903 3.1101L2.91423 6.71257Z" fill="#1D4ED8"/>
</svg>
