<svg width="133" height="16" viewBox="0 0 133 16" fill="none" xmlns="http://www.w3.org/2000/svg">
<g clip-path="url(#clip0_36774_24000)">
<g clip-path="url(#clip1_36774_24000)">
<g clip-path="url(#clip2_36774_24000)">
<path d="M4.30079 0.0410156C3.70346 0.0410156 3.40431 0.755502 3.82669 1.17337L14.9471 12.175C15.3695 12.5929 16.0917 12.2969 16.0917 11.706V0.704332C16.0917 0.337993 15.7915 0.0410156 15.4212 0.0410156H4.30079Z" fill="#1D4ED8"/>
<path d="M7.85798 14.448C8.17476 14.7614 8.71641 14.5395 8.71641 14.0963V7.83499C8.71641 7.56023 8.49128 7.3375 8.21355 7.3375H1.88469C1.43669 7.3375 1.21233 7.87336 1.52912 8.18676L7.85798 14.448Z" fill="#1D4ED8"/>
<path d="M3.45078 15.3944C3.66197 15.6034 4.02307 15.4554 4.02307 15.1599V12.3124C4.02307 12.1292 3.87298 11.9807 3.68783 11.9807H0.809544C0.510878 11.9807 0.361305 12.338 0.572494 12.5469L3.45078 15.3944Z" fill="#1D4ED8"/>
</g>
<path d="M25.3098 7.56589C24.3407 7.42956 24.0084 7.26603 24.0084 6.82985C24.0084 6.42096 24.3684 6.14838 24.9776 6.14838C25.6144 6.14838 25.9467 6.39371 26.0298 6.93893H27.7466C27.5804 5.41238 26.4451 4.86719 24.9499 4.86719C23.5654 4.86719 22.2639 5.54867 22.2639 6.93893C22.2639 8.24735 22.9562 8.73802 24.756 9.01063C25.7252 9.14692 26.1128 9.33774 26.1128 9.80117C26.1128 10.2646 25.7806 10.5372 25.0606 10.5372C24.2576 10.5372 23.953 10.1828 23.87 9.5831H22.1255C22.1808 11.0278 23.2608 11.8184 25.0606 11.8184C26.8328 11.8184 27.9127 11.0551 27.9127 9.63759C27.9404 8.2201 26.9989 7.81121 25.3098 7.56589Z" fill="#202020"/>
<path d="M31.9831 4.89453C30.3217 4.89453 29.048 5.3852 28.9372 6.96627H30.7094C30.7924 6.39381 31.1247 6.23025 31.8724 6.23025C32.7307 6.23025 32.98 6.66642 32.98 7.45691V7.72952H32.2047C30.1279 7.72952 28.688 8.30198 28.688 9.85576C28.688 11.246 29.7126 11.8457 30.9586 11.8457C32.0108 11.8457 32.62 11.4368 33.0077 10.8916V11.6821H34.8352V7.37516C34.8075 5.54876 33.6445 4.89453 31.9831 4.89453ZM32.9523 9.36508C32.9523 10.1011 32.3154 10.5373 31.4847 10.5373C30.7924 10.5373 30.5156 10.2102 30.5156 9.74672C30.5156 9.03798 31.1524 8.79266 32.2324 8.79266H32.9523V9.36508Z" fill="#202020"/>
<path d="M37.4114 2.03125H35.5562V11.7084H37.4114V2.03125Z" fill="#202020"/>
<path d="M41.6472 4.89453C39.6812 4.89453 38.1582 6.25751 38.1582 8.35648V8.46551C38.1582 10.5918 39.6535 11.8457 41.6748 11.8457C43.5301 11.8457 44.693 11.0552 44.9146 9.61044H43.1424C43.0317 10.1829 42.5886 10.5373 41.7302 10.5373C40.7057 10.5373 40.0965 9.9103 40.0411 8.79266H44.9146V8.27473C44.9423 5.90314 43.3916 4.89453 41.6472 4.89453ZM40.0965 7.64773C40.235 6.69366 40.8165 6.14847 41.6472 6.14847C42.5332 6.14847 43.0593 6.63913 43.1147 7.64773H40.0965Z" fill="#202020"/>
<path d="M48.8469 7.56394C47.8778 7.42761 47.5455 7.26408 47.5455 6.8279C47.5455 6.41901 47.9055 6.14643 48.5147 6.14643C49.1515 6.14643 49.4838 6.39176 49.5669 6.93698H51.2837C51.1175 5.41043 49.9822 4.86523 48.487 4.86523C47.1025 4.86523 45.8011 5.54672 45.8011 6.93698C45.8011 8.24539 46.4933 8.73607 48.2931 9.00868C49.2623 9.14496 49.65 9.33578 49.65 9.79921C49.65 10.2626 49.3177 10.5352 48.5977 10.5352C47.7947 10.5352 47.4901 10.1809 47.4071 9.58114H45.6626C45.718 11.0259 46.7979 11.8164 48.5977 11.8164C50.3699 11.8164 51.4498 11.0531 51.4498 9.63564C51.4775 8.21815 50.5637 7.80925 48.8469 7.56394Z" fill="#202020"/>
<path d="M56.2936 4.8935C55.1582 4.8935 54.4383 5.43869 54.1057 6.09292V2.03125H52.2231V11.7084H54.1057V7.8648C54.1057 6.88345 54.7149 6.39277 55.5181 6.39277C56.3487 6.39277 56.7086 6.82891 56.7086 7.72848V11.7084H58.5917V7.45591C58.5639 5.68403 57.6226 4.8935 56.2936 4.8935Z" fill="#202020"/>
<path d="M62.6348 4.89453C60.9737 4.89453 59.6998 5.3852 59.5891 6.96627H61.3614C61.4443 6.39381 61.7764 6.23025 62.5241 6.23025C63.3825 6.23025 63.6317 6.66642 63.6317 7.45691V7.72952H62.8567C60.7796 7.72952 59.3398 8.30198 59.3398 9.85576C59.3398 11.246 60.3645 11.8457 61.6106 11.8457C62.6626 11.8457 63.2717 11.4368 63.6595 10.8916V11.6821H65.4869V7.37516C65.4596 5.54876 64.2686 4.89453 62.6348 4.89453ZM63.6043 9.36508C63.6043 10.1011 62.9674 10.5373 62.1364 10.5373C61.4443 10.5373 61.1673 10.2102 61.1673 9.74672C61.1673 9.03798 61.8042 8.79266 62.884 8.79266H63.6043V9.36508Z" fill="#202020"/>
<path d="M70.2794 4.89453C69.144 4.89453 68.4241 5.43972 68.0915 6.09395V5.03083H66.2085V11.6821H68.0915V7.8658C68.0915 6.88449 68.7007 6.39381 69.5039 6.39381C70.3345 6.39381 70.6944 6.82995 70.6944 7.72952V11.7094H72.5775V7.45691C72.5497 5.68506 71.6084 4.89453 70.2794 4.89453Z" fill="#202020"/>
<path d="M78.4203 6.0384C78.0326 5.35691 77.3678 4.8935 76.288 4.8935C74.5991 4.8935 73.3252 6.1747 73.3252 8.35548V8.46452C73.3252 10.6725 74.6264 11.8447 76.2602 11.8447C77.2571 11.8447 78.0877 11.2722 78.4203 10.5908V11.7084H80.2755V2.03125H78.4203V6.0384ZM78.4754 8.40998C78.4754 9.74569 77.7833 10.3999 76.8142 10.3999C75.8725 10.3999 75.2356 9.74569 75.2356 8.43723V8.32819C75.2356 6.99248 75.8174 6.31098 76.8694 6.31098C77.894 6.31098 78.4754 6.99248 78.4754 8.30094V8.40998Z" fill="#202020"/>
<path d="M86.2005 5.05859L84.6774 9.03848L83.0436 5.05859H81.0225L83.7083 11.0284L82.5173 13.9725H84.3452L88.0002 5.05859H86.2005Z" fill="#202020"/>
</g>
<path d="M132.135 6.5451V7.39737H129.156V6.5451H132.135ZM129.955 5.23828H131.017V10.3981C131.017 10.604 131.047 10.7591 131.109 10.8633C131.17 10.9651 131.25 11.0349 131.347 11.0728C131.446 11.1083 131.554 11.1261 131.67 11.1261C131.755 11.1261 131.83 11.1201 131.894 11.1083C131.958 11.0965 132.007 11.087 132.043 11.0799L132.235 11.957C132.173 11.9807 132.085 12.0044 131.972 12.0281C131.858 12.0541 131.716 12.0683 131.546 12.0707C131.266 12.0754 131.006 12.0257 130.764 11.9215C130.523 11.8174 130.328 11.6564 130.178 11.4386C130.029 11.2208 129.955 10.9473 129.955 10.6183V5.23828Z" fill="#1F2937"/>
<path d="M126.213 12.1083C125.685 12.1083 125.23 11.9888 124.849 11.7496C124.47 11.5082 124.179 11.1755 123.975 10.7518C123.772 10.328 123.67 9.84268 123.67 9.29581C123.67 8.74183 123.774 8.25296 123.982 7.82919C124.191 7.40305 124.484 7.07043 124.863 6.83132C125.242 6.59221 125.688 6.47266 126.202 6.47266C126.616 6.47266 126.986 6.5496 127.31 6.70348C127.634 6.85499 127.896 7.06806 128.095 7.34268C128.296 7.61731 128.415 7.93809 128.453 8.30504H127.42C127.363 8.04936 127.233 7.82919 127.029 7.64453C126.828 7.45987 126.558 7.36754 126.22 7.36754C125.924 7.36754 125.664 7.44567 125.442 7.60192C125.222 7.7558 125.05 7.97597 124.927 8.26243C124.804 8.54652 124.742 8.88269 124.742 9.27095C124.742 9.66868 124.803 10.012 124.923 10.3008C125.044 10.5896 125.215 10.8133 125.435 10.9719C125.657 11.1306 125.919 11.2099 126.22 11.2099C126.421 11.2099 126.603 11.1732 126.767 11.0998C126.932 11.024 127.071 10.9163 127.182 10.7766C127.296 10.637 127.375 10.4689 127.42 10.2724H128.453C128.415 10.6251 128.301 10.94 128.109 11.217C127.917 11.494 127.66 11.7118 127.338 11.8704C127.019 12.029 126.643 12.1083 126.213 12.1083Z" fill="#1F2937"/>
<path d="M120.397 12.1083C119.859 12.1083 119.396 11.9935 119.008 11.7638C118.622 11.5318 118.324 11.2063 118.113 10.7873C117.905 10.3659 117.801 9.87228 117.801 9.30646C117.801 8.74775 117.905 8.25533 118.113 7.82919C118.324 7.40305 118.618 7.07043 118.994 6.83132C119.373 6.59221 119.815 6.47266 120.322 6.47266C120.63 6.47266 120.928 6.52356 121.217 6.62535C121.506 6.72715 121.765 6.88696 121.995 7.10476C122.224 7.32256 122.405 7.60547 122.538 7.95348C122.671 8.29912 122.737 8.71934 122.737 9.21413V9.59055H118.401V8.7951H121.696C121.696 8.51574 121.64 8.26835 121.526 8.05291C121.412 7.83511 121.252 7.66347 121.047 7.538C120.843 7.41252 120.604 7.34979 120.329 7.34979C120.031 7.34979 119.77 7.42318 119.548 7.56996C119.328 7.71437 119.157 7.90376 119.037 8.13814C118.918 8.37015 118.859 8.62228 118.859 8.89453V9.51598C118.859 9.88056 118.923 10.1907 119.051 10.4464C119.181 10.7021 119.362 10.8974 119.594 11.0323C119.826 11.1649 120.097 11.2312 120.407 11.2312C120.609 11.2312 120.792 11.2028 120.958 11.146C121.123 11.0868 121.267 10.9992 121.387 10.8832C121.508 10.7672 121.6 10.6239 121.664 10.4535L122.669 10.6346C122.589 10.9305 122.444 11.1897 122.236 11.4123C122.03 11.6325 121.771 11.8041 121.458 11.9272C121.148 12.0479 120.794 12.1083 120.397 12.1083Z" fill="#1F2937"/>
<path d="M113.131 8.75959V11.9982H112.069V6.54368H113.089V7.43146H113.156C113.281 7.14264 113.478 6.91063 113.745 6.73544C114.015 6.56025 114.355 6.47266 114.765 6.47266C115.136 6.47266 115.462 6.55078 115.741 6.70703C116.021 6.86091 116.237 7.09055 116.391 7.39595C116.545 7.70135 116.622 8.07895 116.622 8.52876V11.9982H115.56V8.6566C115.56 8.26125 115.457 7.9523 115.251 7.72976C115.045 7.50485 114.762 7.3924 114.402 7.3924C114.156 7.3924 113.937 7.44567 113.745 7.5522C113.556 7.65874 113.406 7.81499 113.294 8.02095C113.186 8.22455 113.131 8.47076 113.131 8.75959Z" fill="#1F2937"/>
<path d="M107.155 8.75959V11.9982H106.093V6.54368H107.112V7.43146H107.179C107.305 7.14264 107.501 6.91063 107.769 6.73544C108.039 6.56025 108.379 6.47266 108.788 6.47266C109.16 6.47266 109.485 6.55078 109.765 6.70703C110.044 6.86091 110.261 7.09055 110.415 7.39595C110.568 7.70135 110.645 8.07895 110.645 8.52876V11.9982H109.584V8.6566C109.584 8.26125 109.481 7.9523 109.275 7.72976C109.069 7.50485 108.786 7.3924 108.426 7.3924C108.18 7.3924 107.961 7.44567 107.769 7.5522C107.58 7.65874 107.429 7.81499 107.318 8.02095C107.209 8.22455 107.155 8.47076 107.155 8.75959Z" fill="#1F2937"/>
<path d="M102.365 12.1083C101.854 12.1083 101.407 11.9911 101.026 11.7567C100.645 11.5224 100.349 11.1945 100.138 10.7731C99.9276 10.3517 99.8223 9.85926 99.8223 9.29581C99.8223 8.72999 99.9276 8.2352 100.138 7.81143C100.349 7.38767 100.645 7.05859 101.026 6.82422C101.407 6.58984 101.854 6.47266 102.365 6.47266C102.876 6.47266 103.323 6.58984 103.704 6.82422C104.085 7.05859 104.381 7.38767 104.591 7.81143C104.802 8.2352 104.907 8.72999 104.907 9.29581C104.907 9.85926 104.802 10.3517 104.591 10.7731C104.381 11.1945 104.085 11.5224 103.704 11.7567C103.323 11.9911 102.876 12.1083 102.365 12.1083ZM102.368 11.217C102.7 11.217 102.974 11.1294 103.192 10.9542C103.41 10.779 103.571 10.5458 103.675 10.2546C103.782 9.96342 103.835 9.64264 103.835 9.29226C103.835 8.94425 103.782 8.62464 103.675 8.33345C103.571 8.03989 103.41 7.80433 103.192 7.62678C102.974 7.44922 102.7 7.36044 102.368 7.36044C102.035 7.36044 101.758 7.44922 101.537 7.62678C101.32 7.80433 101.157 8.03989 101.051 8.33345C100.947 8.62464 100.895 8.94425 100.895 9.29226C100.895 9.64264 100.947 9.96342 101.051 10.2546C101.157 10.5458 101.32 10.779 101.537 10.9542C101.758 11.1294 102.035 11.217 102.368 11.217Z" fill="#1F2937"/>
<path d="M98.8393 7.09144H97.7314C97.6887 6.8547 97.6094 6.64637 97.4934 6.46644C97.3774 6.28652 97.2354 6.13382 97.0673 6.00835C96.8992 5.88287 96.711 5.78817 96.5027 5.72425C96.2967 5.66033 96.0777 5.62837 95.8457 5.62837C95.4267 5.62837 95.0514 5.73372 94.72 5.94443C94.3909 6.15513 94.1305 6.46407 93.9387 6.87127C93.7493 7.27847 93.6547 7.77563 93.6547 8.36275C93.6547 8.9546 93.7493 9.45413 93.9387 9.86133C94.1305 10.2685 94.3921 10.5763 94.7235 10.7846C95.055 10.993 95.4279 11.0971 95.8422 11.0971C96.0718 11.0971 96.2896 11.0663 96.4956 11.0048C96.7039 10.9409 96.8921 10.8474 97.0602 10.7243C97.2283 10.6011 97.3703 10.4508 97.4863 10.2733C97.6047 10.0933 97.6864 9.88737 97.7314 9.65536L98.8393 9.65891C98.7801 10.0164 98.6653 10.3455 98.4949 10.6461C98.3268 10.9444 98.1101 11.2025 97.845 11.4203C97.5822 11.6357 97.2815 11.8026 96.943 11.921C96.6045 12.0394 96.2351 12.0985 95.835 12.0985C95.2053 12.0985 94.6442 11.9494 94.1518 11.6511C93.6594 11.3504 93.2711 10.9208 92.987 10.362C92.7053 9.80333 92.5645 9.1369 92.5645 8.36275C92.5645 7.58623 92.7065 6.9198 92.9906 6.36346C93.2747 5.80475 93.6629 5.37624 94.1554 5.07795C94.6478 4.77728 95.2077 4.62695 95.835 4.62695C96.2209 4.62695 96.5808 4.68259 96.9146 4.79386C97.2508 4.90276 97.5526 5.06374 97.8201 5.27681C98.0877 5.48751 98.309 5.74556 98.4842 6.05096C98.6594 6.35399 98.7778 6.70082 98.8393 7.09144Z" fill="#1F2937"/>
</g>
<defs>
<clipPath id="clip0_36774_24000">
<rect width="132.235" height="15.9196" fill="white" transform="translate(0 0.0410156)"/>
</clipPath>
<clipPath id="clip1_36774_24000">
<rect width="88" height="15.9196" fill="white" transform="translate(0 0.0410156)"/>
</clipPath>
<clipPath id="clip2_36774_24000">
<rect width="16.0915" height="15.9196" fill="white" transform="translate(0 0.0410156)"/>
</clipPath>
</defs>
</svg>
