<svg id="Layer_1" data-name="Layer 1" xmlns="http://www.w3.org/2000/svg" xmlns:xlink="http://www.w3.org/1999/xlink" width="800" height="800" viewBox="0 0 800 800"><defs><style>.cls-1{fill:none;}.cls-2{clip-path:url(#clip-path);}.cls-3{fill:#0137fc;}</style><clipPath id="clip-path"><rect class="cls-1" x="39.28" y="39.28" width="721.44" height="721.44"/></clipPath></defs><title>saleshandy-logo-freelogovectors.net_</title><g class="cls-2"><path class="cls-3" d="M232.09,39.28c-26.78,0-40.19,32.38-21.26,51.32L709.4,589.16c18.94,18.94,51.32,5.53,51.32-21.25V69.34a30.06,30.06,0,0,0-30.06-30.06Z"/><path class="cls-3" d="M391.57,692.17c14.2,14.2,38.49,4.15,38.49-15.94V392.49a22.54,22.54,0,0,0-22.55-22.55H123.77c-20.09,0-30.15,24.29-15.94,38.49Z"/><path class="cls-3" d="M194,735.06a15,15,0,0,0,25.66-10.63v-129a15,15,0,0,0-15-15h-129A15,15,0,0,0,64.94,606Z"/></g><rect class="cls-1" width="800" height="800"/></svg>