<svg width="16" height="16" viewBox="0 0 16 16" fill="none" xmlns="http://www.w3.org/2000/svg">
<path fill-rule="evenodd" clip-rule="evenodd" d="M4.66732 2.66732C4.13688 2.66732 3.62818 2.87803 3.2531 3.2531C2.87803 3.62818 2.66732 4.13688 2.66732 4.66732V7.05784L8.45541 12.8459C8.51498 12.895 8.58987 12.922 8.66732 12.922C8.74477 12.922 8.81965 12.895 8.87922 12.8459L12.8459 8.87922C12.895 8.81965 12.922 8.74477 12.922 8.66732C12.922 8.58987 12.895 8.51498 12.8459 8.45541L7.05784 2.66732H4.66732ZM2.31029 2.31029C2.93542 1.68517 3.78326 1.33398 4.66732 1.33398H7.33398C7.5108 1.33398 7.68036 1.40422 7.80539 1.52925L13.8054 7.52925C13.8141 7.538 13.8226 7.54699 13.8309 7.55621C14.1042 7.86178 14.2553 8.25736 14.2553 8.66732C14.2553 9.07728 14.1042 9.47286 13.8309 9.77843C13.8226 9.78765 13.8141 9.79664 13.8054 9.80539L9.80539 13.8054C9.79664 13.8141 9.78765 13.8226 9.77843 13.8309C9.47286 14.1042 9.07728 14.2553 8.66732 14.2553C8.25736 14.2553 7.86178 14.1042 7.55621 13.8309C7.54699 13.8226 7.538 13.8141 7.52925 13.8054L1.52925 7.80539C1.40422 7.68036 1.33398 7.5108 1.33398 7.33398V4.66732C1.33398 3.78326 1.68517 2.93542 2.31029 2.31029Z" fill="#1D4ED8"/>
<path fill-rule="evenodd" clip-rule="evenodd" d="M6.00065 5.33898C5.63246 5.33898 5.33398 5.63745 5.33398 6.00564C5.33398 6.37383 5.63246 6.67231 6.00065 6.67231C6.36884 6.67231 6.66732 6.37383 6.66732 6.00564C6.66732 5.63745 6.36884 5.33898 6.00065 5.33898ZM4.00065 6.00564C4.00065 4.90107 4.89608 4.00564 6.00065 4.00564C7.10522 4.00564 8.00065 4.90107 8.00065 6.00564C8.00065 7.11021 7.10522 8.00564 6.00065 8.00564C4.89608 8.00564 4.00065 7.11021 4.00065 6.00564Z" fill="#1D4ED8"/>
</svg>
