<svg width="22" height="14" viewBox="0 0 22 14" fill="none" xmlns="http://www.w3.org/2000/svg">
<g clip-path="url(#clip0_35976_60819)">
<rect x="21.666" y="0.449219" width="13" height="21.6667" rx="2" transform="rotate(90 21.666 0.449219)" fill="white" fill-opacity="0.7"/>
<path fill-rule="evenodd" clip-rule="evenodd" d="M14.6511 3.76562C15.354 3.76562 15.9238 4.33544 15.9238 5.03835C15.9238 5.74126 15.354 6.31108 14.6511 6.31108C13.9482 6.31108 13.3784 5.74126 13.3784 5.03835C13.3784 4.33544 13.9482 3.76562 14.6511 3.76562Z" fill="#9CA3AF"/>
<path fill-rule="evenodd" clip-rule="evenodd" d="M10.8327 3.76562C11.5356 3.76562 12.1055 4.33544 12.1055 5.03835C12.1055 5.74126 11.5356 6.31108 10.8327 6.31108C10.1298 6.31108 9.56001 5.74126 9.56001 5.03835C9.56001 4.33544 10.1298 3.76562 10.8327 3.76562Z" fill="#9CA3AF"/>
<path fill-rule="evenodd" clip-rule="evenodd" d="M7.01438 3.76562C7.71729 3.76562 8.28711 4.33544 8.28711 5.03835C8.28711 5.74126 7.71729 6.31108 7.01438 6.31108C6.31147 6.31108 5.74165 5.74126 5.74165 5.03835C5.74165 4.33544 6.31147 3.76562 7.01438 3.76562Z" fill="#9CA3AF"/>
<path fill-rule="evenodd" clip-rule="evenodd" d="M14.6511 7.58594C15.354 7.58594 15.9238 8.15576 15.9238 8.85866C15.9238 9.56157 15.354 10.1314 14.6511 10.1314C13.9482 10.1314 13.3784 9.56157 13.3784 8.85866C13.3784 8.15576 13.9482 7.58594 14.6511 7.58594Z" fill="#9CA3AF"/>
<path fill-rule="evenodd" clip-rule="evenodd" d="M10.8327 7.58594C11.5356 7.58594 12.1055 8.15576 12.1055 8.85866C12.1055 9.56157 11.5356 10.1314 10.8327 10.1314C10.1298 10.1314 9.56001 9.56157 9.56001 8.85866C9.56001 8.15576 10.1298 7.58594 10.8327 7.58594Z" fill="#9CA3AF"/>
<path fill-rule="evenodd" clip-rule="evenodd" d="M7.01438 7.58594C7.71729 7.58594 8.28711 8.15576 8.28711 8.85866C8.28711 9.56157 7.71729 10.1314 7.01438 10.1314C6.31147 10.1314 5.74165 9.56157 5.74165 8.85866C5.74165 8.15576 6.31147 7.58594 7.01438 7.58594Z" fill="#9CA3AF"/>
</g>
<defs>
<clipPath id="clip0_35976_60819">
<rect x="21.666" y="0.449219" width="13" height="21.6667" rx="2" transform="rotate(90 21.666 0.449219)" fill="white"/>
</clipPath>
</defs>
</svg>
